<?xml version="1.0" encoding="utf-8"?>
<!-- Generator: Adobe Illustrator 21.0.0, SVG Export Plug-In . SVG Version: 6.00 Build 0)  -->
<svg version="1.1" id="Layer_1" xmlns="http://www.w3.org/2000/svg" xmlns:xlink="http://www.w3.org/1999/xlink" x="0px" y="0px"
	 viewBox="0 0 283 40" style="enable-background:new 0 0 283 40;" xml:space="preserve">
<style type="text/css">
	.st0{fill:#091A7A;}
	.st1{fill:#3366FF;}
	.st2{fill:#FFFFFF;}
</style>
<g>
	<g>
		<path class="st0" d="M0,29.1V8.9h3.4l6.2,14.2h0.1l6.2-14.2h3.4v20.2h-3V15.1H16l-5.2,11.8H8.4L3.1,15.1H3v13.9H0z"/>
		<path class="st0" d="M36.8,20.6v1.3c0,4.4-2.4,7.5-6.9,7.5s-7-3.1-7-7.5v-1.3c0-4.2,2.5-7.4,7-7.4S36.8,16.3,36.8,20.6z
			 M26.3,20.6v1.2c0,2.8,1.2,4.8,3.7,4.8s3.6-2,3.6-4.8v-1.2c0-2.9-1.2-4.8-3.6-4.8S26.3,17.8,26.3,20.6z"/>
		<path class="st0" d="M40.4,13.4h3.2v2.2h0.1c0.5-1,2-2.4,4.5-2.4c3.2,0,5.5,2,5.5,5.8v10h-3.3v-9.4c0-2.5-1.4-3.6-3.4-3.6
			c-2.3,0-3.4,1.6-3.4,3.7v9.3h-3.3V13.4z"/>
		<path class="st0" d="M57.1,22v-1.6c0-4.4,2.6-7.2,6.7-7.2c4.2,0,6.7,2.9,6.7,7.3V22H60.3v0.4c0,2.6,1.4,4.4,3.7,4.4
			c1.7,0,2.8-0.8,3.2-2.2h3.1c-0.5,2.5-2.5,4.8-6.4,4.8C59.7,29.3,57.1,26.6,57.1,22z M67.3,19.7L67.3,19.7c0-2.2-1.4-4-3.5-4
			c-2.1,0-3.5,1.7-3.5,4v0H67.3z"/>
		<path class="st0" d="M75.1,9.6h3.2v3.8h3v2.6h-3v8.3c0,1.7,0.6,2.2,2.4,2.2c0.3,0,0.5,0,0.7,0v2.5c-0.3,0-0.9,0.1-1.6,0.1
			c-3.8,0-4.8-1.4-4.8-4.5v-8.6h-2.2v-2.6h2.2V9.6z"/>
		<path class="st0" d="M86.7,7.8c1.1,0,1.9,0.8,1.9,1.9s-0.9,1.8-1.9,1.8c-1.1,0-2-0.8-2-1.8S85.7,7.8,86.7,7.8z M85.1,13.4h3.3
			v15.6h-3.3V13.4z"/>
		<path class="st0" d="M92,27l7.9-10.7v-0.1h-7.8v-2.7h11.8v2.2l-7.8,10.6v0.1h7.9v2.7H92V27z"/>
		<path class="st0" d="M106.6,22v-1.6c0-4.4,2.6-7.2,6.7-7.2c4.2,0,6.7,2.9,6.7,7.3V22h-10.2v0.4c0,2.6,1.4,4.4,3.7,4.4
			c1.7,0,2.8-0.8,3.2-2.2h3.1c-0.5,2.5-2.5,4.8-6.4,4.8C109.3,29.3,106.6,26.6,106.6,22z M116.8,19.7L116.8,19.7c0-2.2-1.4-4-3.5-4
			c-2.1,0-3.5,1.7-3.5,4v0H116.8z"/>
		<path class="st0" d="M136.9,28.9l-0.4,1.1c-1.3,3.5-3,4.6-6.1,4.6c-0.6,0-1.3-0.1-1.7-0.1v-2.5c0.3,0,0.8,0.1,1.2,0.1
			c1.8,0,2.6-0.6,3-2.1l0.2-0.7l-5.6-15.7h3.6l3.7,12.4h0.1l3.8-12.4h3.5C141.6,15.6,136.9,28.8,136.9,28.9z"/>
		<path class="st0" d="M157.5,20.6v1.3c0,4.4-2.4,7.5-6.9,7.5s-7-3.1-7-7.5v-1.3c0-4.2,2.5-7.4,7-7.4S157.5,16.3,157.5,20.6z
			 M146.9,20.6v1.2c0,2.8,1.2,4.8,3.7,4.8s3.6-2,3.6-4.8v-1.2c0-2.9-1.2-4.8-3.6-4.8S146.9,17.8,146.9,20.6z"/>
		<path class="st0" d="M174.2,29.1h-3.2v-2.2h-0.1c-0.5,1.2-2,2.4-4.5,2.4c-3.2,0-5.4-1.8-5.4-5.5V13.4h3.3v9.5
			c0,2.7,1.6,3.5,3.3,3.5c2,0,3.4-1.3,3.4-3.6v-9.4h3.3V29.1z"/>
		<path class="st0" d="M178.3,13.4h3.3v2.1h0.1c0.4-1,1.6-2.3,3.7-2.3c0.4,0,0.8,0,1.1,0.1v2.9c-0.3-0.1-0.9-0.1-1.4-0.1
			c-2.6,0-3.5,1.6-3.5,3.7v9.3h-3.3V13.4z"/>
	</g>
	<g>
		<path class="st1" d="M280.5,40h-83.9c-1.4,0-2.5-1.1-2.5-2.5v-35c0-1.4,1.1-2.5,2.5-2.5l83.9,0c1.4,0,2.5,1.1,2.5,2.5v35
			C283,38.9,281.9,40,280.5,40z"/>
		<g>
			<path class="st2" d="M212.4,29.4c-1.2,0-2.3-0.2-3.3-0.5c-1-0.4-1.9-0.9-2.7-1.5c-0.8-0.7-1.3-1.5-1.8-2.5
				c-0.4-1-0.6-2.1-0.6-3.3s0.2-2.4,0.7-3.3c0.5-1,1.1-1.8,1.9-2.5c0.8-0.7,1.7-1.2,2.8-1.5c1-0.4,2.2-0.5,3.3-0.5
				c1.2,0,2.3,0.2,3.2,0.6c1,0.4,1.8,0.9,2.4,1.5l-2.1,2.8c-1.1-0.8-2.2-1.2-3.3-1.2c-1.3,0-2.3,0.4-3.1,1.2
				c-0.8,0.8-1.2,1.8-1.2,3.1c0,1.3,0.4,2.4,1.2,3.1c0.8,0.8,1.8,1.2,3,1.2c0.8,0,1.5-0.1,2.2-0.4c0.7-0.3,1.3-0.6,1.8-1l1.8,2.8
				c-0.9,0.8-1.9,1.3-3,1.7C214.4,29.3,213.4,29.4,212.4,29.4z"/>
			<path class="st2" d="M229.2,29.4c-1,0-1.9-0.2-2.9-0.5c-0.9-0.4-1.7-0.9-2.5-1.5c-0.7-0.7-1.3-1.5-1.7-2.5
				c-0.4-1-0.6-2.1-0.6-3.3s0.2-2.4,0.6-3.3c0.4-1,1-1.8,1.7-2.5c0.7-0.7,1.5-1.2,2.5-1.5c0.9-0.4,1.9-0.5,2.9-0.5
				c1,0,1.9,0.2,2.9,0.5c0.9,0.4,1.7,0.9,2.5,1.5c0.7,0.7,1.3,1.5,1.7,2.5c0.4,1,0.6,2.1,0.6,3.3s-0.2,2.4-0.6,3.3
				c-0.4,1-1,1.8-1.7,2.5c-0.7,0.7-1.5,1.2-2.5,1.5C231.2,29.3,230.2,29.4,229.2,29.4z M229.2,25.8c1,0,1.8-0.4,2.3-1.2
				c0.5-0.8,0.8-1.8,0.8-3.1c0-1.3-0.3-2.4-0.8-3.1c-0.5-0.8-1.3-1.2-2.3-1.2c-1,0-1.8,0.4-2.3,1.2c-0.5,0.8-0.8,1.8-0.8,3.1
				c0,1.3,0.3,2.4,0.8,3.1C227.4,25.5,228.2,25.8,229.2,25.8z"/>
			<path class="st2" d="M246.1,29.4c-0.9,0-1.8-0.2-2.6-0.5c-0.8-0.4-1.4-0.9-2-1.6c-0.6-0.7-1-1.5-1.3-2.5c-0.3-1-0.5-2.1-0.5-3.3
				c0-1.2,0.2-2.3,0.5-3.3c0.4-1,0.8-1.8,1.4-2.5c0.6-0.7,1.3-1.2,2-1.6c0.8-0.4,1.6-0.5,2.4-0.5c0.8,0,1.6,0.1,2.2,0.4
				c0.6,0.3,1.1,0.7,1.6,1.2h0.1l-0.2-2.3V7.8h4.5v21.2h-3.6l-0.3-1.5h-0.1c-0.6,0.5-1.2,1-1.9,1.4
				C247.6,29.3,246.8,29.4,246.1,29.4z M247.2,25.8c0.5,0,1-0.1,1.4-0.3s0.8-0.6,1.2-1.1v-6.1c-0.4-0.4-0.8-0.6-1.2-0.8
				c-0.4-0.2-0.8-0.2-1.3-0.2c-0.8,0-1.5,0.3-2.1,1c-0.6,0.7-0.9,1.7-0.9,3.1c0,1.5,0.3,2.6,0.8,3.3
				C245.6,25.5,246.3,25.8,247.2,25.8z"/>
			<path class="st2" d="M266.5,29.4c-1.2,0-2.3-0.2-3.3-0.5c-1-0.4-1.9-0.9-2.7-1.5c-0.7-0.7-1.3-1.5-1.8-2.5
				c-0.4-1-0.6-2.1-0.6-3.3c0-1.2,0.2-2.3,0.7-3.3s1-1.8,1.7-2.5c0.7-0.7,1.6-1.2,2.5-1.5c0.9-0.4,1.9-0.5,2.9-0.5
				c1.2,0,2.2,0.2,3.1,0.5c0.9,0.4,1.6,0.9,2.2,1.5c0.6,0.6,1,1.4,1.3,2.3c0.3,0.9,0.5,1.8,0.5,2.9c0,0.4,0,0.8-0.1,1.2
				c-0.1,0.4-0.1,0.7-0.1,0.8h-10.2c0.2,1.1,0.7,1.9,1.5,2.4c0.8,0.5,1.8,0.8,3,0.8c0.7,0,1.3-0.1,2-0.3c0.6-0.2,1.3-0.4,1.9-0.8
				l1.5,2.7c-0.9,0.5-1.8,1-2.9,1.3C268.5,29.3,267.5,29.4,266.5,29.4z M266.1,17.1c-0.9,0-1.6,0.2-2.2,0.7c-0.6,0.5-1,1.2-1.2,2.1
				h6.4C268.9,18,267.9,17.1,266.1,17.1z"/>
		</g>
	</g>
</g>
</svg>
