<svg xmlns="http://www.w3.org/2000/svg" xmlns:xlink="http://www.w3.org/1999/xlink" id="Layer_1" x="0" y="0" enable-background="new 0 0 17 17" version="1.1" viewBox="0 0 17 17" xml:space="preserve"><style type="text/css">.st0{fill:#ef4c44}</style><g><path d="M17,8.5c0,4.7-3.8,8.5-8.5,8.5S0,13.2,0,8.5S3.8,0,8.5,0S17,3.8,17,8.5z M15.4,8.5c0-3.8-3.1-6.9-6.9-6.9 S1.6,4.7,1.6,8.5s3.1,6.9,6.9,6.9S15.4,12.3,15.4,8.5z M9.9,8.5l2.1,2.1c0.2,0.2,0.2,0.4,0,0.6L11.2,12c-0.2,0.2-0.4,0.2-0.6,0 L8.5,9.9L6.4,12c-0.2,0.2-0.4,0.2-0.6,0L5,11.2c-0.2-0.2-0.2-0.4,0-0.6l2.1-2.1L5,6.4C4.8,6.2,4.8,5.9,5,5.8L5.8,5 c0.2-0.2,0.4-0.2,0.6,0l2.1,2.1L10.6,5c0.2-0.2,0.4-0.2,0.6,0L12,5.8c0.2,0.2,0.2,0.4,0,0.6L9.9,8.5z" class="st0"/></g></svg>