<svg xmlns="http://www.w3.org/2000/svg" xmlns:xlink="http://www.w3.org/1999/xlink" id="Layer_1" x="0" y="0" enable-background="new 0 0 17 17" version="1.1" viewBox="0 0 17 17" xml:space="preserve"><style type="text/css">.st0{fill:#91c84b}</style><g><path d="M17,8.5c0,4.7-3.8,8.5-8.5,8.5S0,13.2,0,8.5S3.8,0,8.5,0S17,3.8,17,8.5z M1.6,8.5c0,3.8,3.1,6.9,6.9,6.9 s6.9-3.1,6.9-6.9s-3.1-6.9-6.9-6.9S1.6,4.7,1.6,8.5z M13.3,6.7l-5.9,5.9c-0.2,0.2-0.4,0.2-0.6,0L3.7,9.4C3.5,9.3,3.5,9,3.7,8.8 l0.8-0.8c0.2-0.2,0.4-0.2,0.6,0l2,2.1L12,5.3c0.2-0.2,0.4-0.2,0.6,0l0.8,0.8C13.5,6.3,13.5,6.5,13.3,6.7z" class="st0"/></g></svg>