<?xml version="1.0" encoding="utf-8"?>
<!-- Generator: Adobe Illustrator 21.0.0, SVG Export Plug-In . SVG Version: 6.00 Build 0)  -->
<svg version="1.1" id="Layer_1" xmlns="http://www.w3.org/2000/svg" xmlns:xlink="http://www.w3.org/1999/xlink" x="0px" y="0px"
	 viewBox="0 0 100 100" style="enable-background:new 0 0 100 100;" xml:space="preserve">
<style type="text/css">
	.st0{fill:#17A2F2;}
</style>
<g>
	<path class="st0" d="M89.8,32.3c0,27.1-20.6,58.3-58.3,58.3c-11.6,0-22.4-3.4-31.5-9.2c1.7,0.2,3.2,0.2,4.9,0.2
		c9.6,0,18.4-3.2,25.4-8.8c-9-0.2-16.6-6.1-19.2-14.2c1.3,0.2,2.5,0.3,3.9,0.3c1.8,0,3.7-0.3,5.4-0.7C11.1,56.4,4.1,48.2,4.1,38.2
		v-0.3c2.7,1.5,5.9,2.5,9.3,2.6c-5.5-3.7-9.1-10-9.1-17.1c0-3.8,1-7.3,2.8-10.3c10.1,12.4,25.3,20.6,42.3,21.4
		c-0.3-1.5-0.5-3.1-0.5-4.7c0-11.3,9.1-20.5,20.5-20.5c5.9,0,11.2,2.5,15,6.5c4.6-0.9,9.1-2.6,13-4.9c-1.5,4.8-4.8,8.8-9,11.3
		c4.1-0.4,8.1-1.6,11.8-3.2c-2.8,4.1-6.3,7.7-10.3,10.6C89.8,30.5,89.8,31.4,89.8,32.3z"/>
</g>
</svg>
