<svg xmlns="http://www.w3.org/2000/svg" xmlns:xlink="http://www.w3.org/1999/xlink" id="Layer_1" x="0" y="0" enable-background="new 0 0 60 60" version="1.1" viewBox="0 0 60 60" xml:space="preserve"><style type="text/css">.st0{fill:#fd0}.st1{fill:#ff9100}.st2{fill:#fff}.st3{fill:#050505}.st4{fill:#eee}.st5{fill:#ff813f}</style><g id="Page-1_2_"><g id="_x32_.1_1_"><g id="Group_1_" transform="translate(0.000000, 3.000000)"><g id="Combined-Shape_1_"><path d="M57.6,6V4.8c0-0.7-0.5-1.2-1.2-1.2l0,0H56l0,0c-0.7,0-1.2,0.5-1.2,1.2l0,0V6h-1.2c-0.7,0-1.2,0.5-1.2,1.2 l0,0v0.4l0,0c0,0.7,0.5,1.2,1.2,1.2l0,0h1.2V10c0,0.7,0.5,1.2,1.2,1.2l0,0h0.4c0.7,0,1.2-0.5,1.2-1.2l0,0V8.8h1.2 c0.7,0,1.2-0.5,1.2-1.2l0,0V7.2C60,6.5,59.5,6,58.8,6l0,0H57.6z" class="st0"/></g><g id="Logo_1_" transform="translate(38.966203, 0.000000)"><g id="Fill-1_3_"><polygon points="-7.4 12.1 -20 12.1 -13.8 51.5 -12.5 51.5 -.1 51.5 1.3 51.5 7.5 12.1" class="st1"/></g><g id="Fill-2_1_"><polygon points="-7.4 12.1 -20 12.1 -13.8 51.5 -12.5 51.5 -3.2 51.5 -1.9 51.5 4.4 12.1" class="st0"/></g><g id="Fill-3_1_"><polygon points="-23.6 12.1 9 12.1 9 8.4 -23.6 8.4" class="st2"/></g><g id="Stroke-4_1_"><path d="M9.8,12.9h-34.3V7.6H9.8V12.9z M-22.8,11.2H8.1V9.3h-30.9V11.2z"/></g><g id="Fill-6_1_"><polygon points="2.7 2.5 -5.1 2.5 -9.8 2.5 -17.5 2.5 -19.9 8 -9.8 8 -5.1 8 5 8" class="st2"/></g><g id="Group-11_1_" transform="translate(3.455131, 0.000000)"><g id="Stroke-7_1_"><path d="M2.9,8.8h-27.5l3.1-7.1h21.3L2.9,8.8z M-22.1,7.1H0.3l-1.6-3.8h-19.1L-22.1,7.1z" class="st3"/></g><g id="Stroke-9_1_"><path d="M-1.4,52.3h-18.8l-6.5-41.1l15.9,0.1L5,11.2L-1.4,52.3z M-18.8,50.6h15.9l5.9-37.7L-10.8,13l-13.9-0.1L-18.8,50.6z"/></g></g><g id="Fill-12_1_"><polygon points="8 23.2 -6.9 23.2 -8 23.2 -22.8 23.2 -20.1 38.9 -7.4 38.7 5.2 38.9" class="st2"/></g><g id="Stroke-13_1_"><path d="M5.9,39.7l-13.3-0.1l-13.3,0.1l-3.1-17.4H9L5.9,39.7z M-7.5,37.9L4.5,38L7,24h-28.8l2.5,14L-7.5,37.9z"/></g></g><g id="Oval_5_"><path d="M4.6,22.1C2.1,22.1,0,20,0,17.5s2.1-4.6,4.6-4.6s4.6,2.1,4.6,4.6S7.2,22.1,4.6,22.1z M4.6,15.5 c-1.1,0-1.9,0.9-1.9,1.9c0,1.1,0.9,1.9,1.9,1.9c1.1,0,1.9-0.9,1.9-1.9C6.5,16.4,5.7,15.5,4.6,15.5z" class="st4"/></g><g id="Oval_4_"><circle cx="52.9" cy="31.4" r="2.2" class="st4"/></g><g id="Oval_3_"><circle cx="12" cy="43.9" r="2.2" class="st5"/></g></g></g></g></svg>