<?xml version="1.0" encoding="utf-8"?>
<!-- Generator: Adobe Illustrator 21.0.0, SVG Export Plug-In . SVG Version: 6.00 Build 0)  -->
<svg version="1.1" id="Layer_1" xmlns="http://www.w3.org/2000/svg" xmlns:xlink="http://www.w3.org/1999/xlink" x="0px" y="0px"
	 viewBox="0 0 60 60" style="enable-background:new 0 0 60 60;" xml:space="preserve">
<style type="text/css">
	.st0{fill:#0FCE7C;}
	.st1{fill:#15003E;}
</style>
<g>
	<path class="st0" d="M51.9,30.2c-1.4-0.8-2.5-2.1-3.1-3.5c-0.6-1.4-0.9-3.4-0.9-5.8v-8.7c0-0.9-0.1-1.8-0.3-2.7
		c-0.2-0.7-0.5-1.2-1-1.7c-0.6-0.5-1.2-0.8-1.9-0.9c-0.1,0-0.3-0.1-0.5-0.1c-1.1-0.2-2.2-0.3-3.3-0.3h-4.8c1.1,0,2.2,0.1,3.3,0.3
		c0.2,0,0.3,0.1,0.5,0.1c0.7,0.1,1.4,0.4,1.9,0.9c0.5,0.5,0.9,1,1.1,1.7c0.2,0.9,0.4,1.8,0.3,2.7v8.8c0,2.4,0,4.5,0.7,6
		c0.6,1.4,1.6,2.6,3,3.3c-1.3,0.8-2.4,2-3,3.4c-0.6,1.5-0.7,3.5-0.7,5.9v8.8c0,0.9-0.1,1.8-0.3,2.7c-0.2,0.7-0.6,1.2-1.1,1.7
		c-0.6,0.5-1.2,0.8-1.9,0.9l-0.5,0.1C38.2,53.9,37,54,35.9,54h4.8c1.1,0,2.2-0.1,3.3-0.3l0.5-0.1c0.7-0.1,1.4-0.4,1.9-0.9
		c0.5-0.5,0.9-1,1-1.7c0.2-0.9,0.4-1.8,0.3-2.7v-8.7c0-2.4,0.3-4.4,0.9-5.8C49.4,32.4,50.5,31.1,51.9,30.2L51.9,30.2L51.9,30.2z"/>
	<path class="st1" d="M55.9,25.5c-0.9-1.2-1.3-2.6-1.3-4.1v-8.9c0-1.7-0.2-3.4-0.5-5c-0.3-1.4-1-2.6-1.9-3.7
		c-1.1-1.1-2.4-1.8-3.9-2.2c-1-0.3-2-0.5-3-0.6c-1.1-0.1-2.2-0.2-3.4-0.2H0c0,0,1.5,14.8,10.1,18.8c0.7,4.4,2.7,10.7,8.1,13.2
		c0.8,4.7,3.1,10.9,9.5,12.7c0,0.1,0,0.2,0,0.2c0,0,0.8,13.3,14.5,13.3c1.2,0,2.2,0,3.2-0.1c1-0.1,1.9-0.2,2.8-0.5
		c1.5-0.4,2.9-1.1,4-2.2c1-1,1.7-2.3,2-3.6c0.4-1.7,0.6-3.4,0.5-5.1v-8.9c0-1.4,0.4-2.9,1.3-4c0.9-1.1,2.2-1.7,4.1-1.7v-5.7
		C58.1,27.2,56.8,26.7,55.9,25.5L55.9,25.5z M48.7,33.6c-0.6,1.4-0.9,3.4-0.9,5.7V48c0,2.1-0.5,3.6-1.4,4.3
		c-0.3,0.3-0.7,0.5-1.1,0.6c-0.8,0.3-1.5,0.4-2.3,0.5c-0.8,0-8,0.9-9.1-7.3h6.7c-0.3-5.3-4.5-5.6-5-5.6H33c-5.3,0-7.7-4-8.8-7.5H40
		c0-3.1-2.5-5.8-4.9-5.6H24.8c-5.2-0.1-7.6-4-8.6-7.5h23.1c0-3.1-2.1-5.6-5.3-5.6H16.4c-5.3,0-6.9-4-8-7.5h32.2
		c1.1,0,2.3,0.1,3.4,0.3c0.2,0,0.3,0.1,0.5,0.1C44.7,7,45,7.1,45.3,7.2c0.4,0.1,0.8,0.4,1.1,0.6c0.5,0.5,0.9,1,1.1,1.7
		c0.2,0.9,0.4,1.8,0.3,2.7v8.6c0,2.4,0.3,4.3,0.9,5.8c0.7,1.5,1.8,2.7,3.2,3.5C50.5,30.9,49.4,32.1,48.7,33.6L48.7,33.6z"/>
</g>
</svg>
