<?xml version="1.0" encoding="utf-8"?>
<!-- Generator: Adobe Illustrator 21.0.0, SVG Export Plug-In . SVG Version: 6.00 Build 0)  -->
<svg version="1.1" id="Layer_1" xmlns="http://www.w3.org/2000/svg" xmlns:xlink="http://www.w3.org/1999/xlink" x="0px" y="0px"
	 viewBox="0 0 60 60" style="enable-background:new 0 0 60 60;" xml:space="preserve">
<style type="text/css">
	.st0{fill:#0099EE;}
</style>
<g>
	<path class="st0" d="M30,0C13.4,0,0,13.4,0,30s13.4,30,30,30s30-13.4,30-30S46.6,0,30,0z M7.6,36.2c-1.5,0-2.7-1.2-2.7-2.7
		c0-1.5,1.2-2.7,2.7-2.7s2.7,1.2,2.7,2.7S9.1,36.2,7.6,36.2z M15.1,36.2c-1.5,0-2.7-1.2-2.7-2.7c0-1.5,1.2-2.7,2.7-2.7
		s2.7,1.2,2.7,2.7S16.6,36.2,15.1,36.2z M15.1,29c-1.5,0-2.7-1.2-2.7-2.7c0-1.5,1.2-2.7,2.7-2.7s2.7,1.2,2.7,2.7
		C17.8,27.8,16.6,29,15.1,29z M25.1,31.8V34v0.1V35v4.6v0.1v0.8c0,1.4-1.2,2.6-2.6,2.6c-1.4,0-2.6-1.2-2.6-2.6v-0.8v-0.1V35v-0.8V34
		v-2.3v-5.5c0-1.4,1.2-2.6,2.6-2.6c1.4,0,2.6,1.2,2.6,2.6V31.8z M22.5,22.2c-1.5,0-2.7-1.2-2.7-2.7c0-1.5,1.2-2.7,2.7-2.7
		c1.5,0,2.7,1.2,2.7,2.7S24,22.2,22.5,22.2z M30,36.2c-1.5,0-2.7-1.2-2.7-2.7c0-1.5,1.2-2.7,2.7-2.7s2.7,1.2,2.7,2.7
		S31.5,36.2,30,36.2z M40.1,31.8V34v0.1V35v4.6v0.1v0.8c0,1.4-1.2,2.6-2.6,2.6c-1.4,0-2.6-1.2-2.6-2.6v-0.8v-0.1V35v-0.8V34v-2.3
		v-5.5c0-1.4,1.2-2.6,2.6-2.6s2.6,1.2,2.6,2.6V31.8z M37.5,22.2c-1.5,0-2.7-1.2-2.7-2.7c0-1.5,1.2-2.7,2.7-2.7
		c1.5,0,2.7,1.2,2.7,2.7S39,22.2,37.5,22.2z M44.9,36.2c-1.5,0-2.7-1.2-2.7-2.7c0-1.5,1.2-2.7,2.7-2.7s2.7,1.2,2.7,2.7
		S46.4,36.2,44.9,36.2z M44.9,29c-1.5,0-2.7-1.2-2.7-2.7c0-1.5,1.2-2.7,2.7-2.7s2.7,1.2,2.7,2.7C47.6,27.8,46.4,29,44.9,29z
		 M52.4,36.2c-1.5,0-2.7-1.2-2.7-2.7c0-1.5,1.2-2.7,2.7-2.7s2.7,1.2,2.7,2.7C55.1,35,53.9,36.2,52.4,36.2z"/>
</g>
</svg>
