<?xml version="1.0" encoding="utf-8"?>
<!-- Generator: Adobe Illustrator 21.0.0, SVG Export Plug-In . SVG Version: 6.00 Build 0)  -->
<svg version="1.1" id="Layer_1" xmlns="http://www.w3.org/2000/svg" xmlns:xlink="http://www.w3.org/1999/xlink" x="0px" y="0px"
	 viewBox="0 0 60 60" style="enable-background:new 0 0 60 60;" xml:space="preserve">
<style type="text/css">
	.st0{fill:#0D0764;}
	.st1{fill:#24E899;}
</style>
<g>
	<circle class="st0" cx="30.5" cy="21.4" r="4.5"/>
	<g>
		<path class="st0" d="M38,33c-0.1-3.4-3.4-6.1-7.5-6.1s-7.4,2.7-7.5,6.1H38z"/>
	</g>
	<path class="st1" d="M30,4.4C15.9,4.4,4.4,15.9,4.4,30S15.9,55.6,30,55.6c14.1,0,25.6-11.5,25.6-25.6S44.1,4.4,30,4.4z M30,52.8
		c-6.2,0-11.7-2.4-15.8-6.4L13,35.6l-4.2,2.6c-1-2.6-1.6-5.3-1.6-8.3c0-10.6,7.2-19.4,16.9-22l10.3,5V7.7C44.9,9.7,52.8,19,52.8,30
		c0,1.8-0.2,3.6-0.6,5.4l-8.6,6.3l4.4,2.3C43.8,49.3,37.3,52.8,30,52.8z"/>
	<g>
		<polygon class="st1" points="25.5,37.8 30.5,44.8 30.5,40.7 		"/>
		<polygon class="st0" points="30.5,40.7 30.5,44.8 35.5,37.8 		"/>
		<polygon class="st0" points="30.5,28.5 30.5,34.6 35.5,36.8 		"/>
		<polygon class="st1" points="30.5,34.6 30.5,39.8 35.5,36.8 		"/>
		<polygon class="st1" points="25.5,36.8 30.5,34.6 30.5,28.5 		"/>
		<polygon class="st0" points="25.5,36.8 30.5,39.8 30.5,34.6 		"/>
	</g>
	<path class="st0" d="M30,0C13.4,0,0,13.4,0,30s13.4,30,30,30c16.6,0,30-13.4,30-30S46.6,0,30,0z M30,55.6
		C15.9,55.6,4.4,44.1,4.4,30S15.9,4.4,30,4.4c14.1,0,25.6,11.5,25.6,25.6S44.1,55.6,30,55.6z"/>
</g>
</svg>
