<svg xmlns="http://www.w3.org/2000/svg" xmlns:xlink="http://www.w3.org/1999/xlink" id="Layer_1" x="0" y="0" enable-background="new 0 0 60 60" version="1.1" viewBox="0 0 60 60" xml:space="preserve"><style type="text/css">.st0{fill:#e85c37}</style><path d="M29.6,27.3c-0.9-1.8-2.8-3-4.9-3c-3.1,0-5.6,2.5-5.6,5.6s2.5,5.6,5.6,5.6c2.2,0,4-1.2,5-3h14.1l-6.2,6.2	c-0.5-0.1-1-0.2-1.5-0.2c-3.1,0-5.6,2.5-5.6,5.6c0,3.1,2.5,5.6,5.6,5.6c3.1,0,5.6-2.5,5.6-5.6c0-0.7-0.1-1.3-0.3-1.9l9.7-9.7h4.3	c-1.2,12.9-12,23-25.2,23C16,55.3,4.7,44,4.7,30S16,4.7,30,4.7c5.4,0,10.4,1.7,14.5,4.5c0,0,0,0,0,0c0,0.3-0.1,0.5-0.1,0.8	c0,3.1,2.5,5.6,5.6,5.6s5.6-2.5,5.6-5.6S53.1,4.5,50,4.5c-1.1,0-2.1,0.3-2.9,0.8c0,0,0,0,0,0C42.2,1.9,36.3,0,30,0	C13.4,0,0,13.4,0,30s13.4,30,30,30c15.8,0,28.7-12.2,29.9-27.6H60v-5.1H29.6z" class="st0"/></svg>