<svg xmlns="http://www.w3.org/2000/svg" xmlns:xlink="http://www.w3.org/1999/xlink" id="Layer_1" x="0" y="0" enable-background="new 0 0 60 60" version="1.1" viewBox="0 0 60 60" xml:space="preserve"><style type="text/css">.st0{fill:none;stroke:#000;stroke-width:8.0765}</style><g id="layer1" transform="translate(83.363098,31.000909)"><g id="g3778" transform="matrix(0.70710678,0.70710678,-0.70710678,0.70710678,537.02565,-191.77025)"><path id="path2985" cx="151.429" cy="137.143" d="M-260.7,552.4c0,12.1-9.8,21.9-21.9,21.9s-21.9-9.8-21.9-21.9s9.8-21.9,21.9-21.9S-260.7,540.3-260.7,552.4L-260.7,552.4z" class="st0" rx="668.571" ry="668.571" type="arc"/><rect id="rect3755" width="64.3" height="5.1" x="-307" y="549.8" transform="matrix(2.535182e-06 1 -1 2.535182e-06 277.5031 827.2202)"/><rect id="rect3757" width="64.3" height="5.1" x="-322.4" y="549.8" transform="matrix(2.535182e-06 1 -1 2.535182e-06 262.0753 842.648)"/></g></g></svg>