<?xml version="1.0" encoding="utf-8"?>
<!-- Generator: Adobe Illustrator 21.0.0, SVG Export Plug-In . SVG Version: 6.00 Build 0)  -->
<svg version="1.1" id="Layer_1" xmlns="http://www.w3.org/2000/svg" xmlns:xlink="http://www.w3.org/1999/xlink" x="0px" y="0px"
	 viewBox="0 0 60 60" style="enable-background:new 0 0 60 60;" xml:space="preserve">
<style type="text/css">
	.st0{fill:#491E8C;}
	.st1{opacity:0.4;fill:#491E8C;enable-background:new    ;}
</style>
<g id="Logo">
	<g id="Brandmark">
		<circle id="Core-1_1_" class="st0" cx="29.9" cy="17.7" r="4.6"/>
		<circle id="Core-2_1_" class="st0" cx="16.6" cy="27.3" r="4.6"/>
		<circle id="Core-3_1_" class="st0" cx="43.1" cy="27.3" r="4.6"/>
		<circle id="Core-4_1_" class="st0" cx="21.7" cy="42.7" r="4.6"/>
		<circle id="Core-5_1_" class="st0" cx="38" cy="42.7" r="4.6"/>
		<path id="Center" class="st1" d="M32.3,42.7c0-1.5,0.5-2.9,1.7-4c1.2-1.1,2.5-1.7,4-1.7s2.8,0.5,3.9,1.5c0.9-1.6,1.6-3.6,1.9-5.6
			c-0.1,0-0.4,0-0.7,0c-1.5,0-2.9-0.5-4-1.7c-1.1-1.1-1.7-2.5-1.7-4c0-1.5,0.5-2.9,1.7-4c0.4-0.4,0.8-0.7,1.2-0.9
			c-1.3-1.5-2.9-2.7-4.7-3.5c-0.3,1.1-0.8,2-1.6,2.8c-1.1,1.1-2.5,1.7-4,1.7s-2.9-0.5-4-1.7c-0.8-0.8-1.3-1.7-1.6-2.8
			c-1.9,0.8-3.5,2-4.7,3.5c0.4,0.3,0.8,0.5,1.2,0.9c1.1,1.1,1.7,2.5,1.7,4c0,1.5-0.5,2.9-1.7,4c-1.1,1.1-2.5,1.7-4,1.7
			c-0.3,0-0.4,0-0.7,0c0.3,2,0.8,3.9,1.9,5.6c1.1-0.9,2.4-1.5,3.9-1.5s2.9,0.5,4,1.7c1.1,1.1,1.7,2.5,1.7,4c0,0.8-0.1,1.6-0.5,2.3
			c0.9,0.3,1.9,0.3,2.9,0.3c0.9,0,2-0.1,2.9-0.3C32.4,44.3,32.3,43.7,32.3,42.7z"/>
		<path id="Circles" class="st1" d="M58.8,20.6c-0.8-2-2.1-3.9-3.6-5.4c-1.6-1.6-3.3-2.8-5.4-3.6c-1.3-0.5-2.8-0.9-4.3-1.2
			c-0.9-1.7-2.1-3.3-3.5-4.8C40.4,4,38.7,2.8,36.7,2c-2.1-0.9-4.3-1.3-6.6-1.3S25.6,1.1,23.6,2c-2,0.8-3.9,2.1-5.4,3.6
			c-1.3,1.3-2.5,2.9-3.3,4.7c-1.6,0.1-3.1,0.5-4.6,1.2c-2,0.8-3.9,2.1-5.4,3.6c-1.6,1.6-2.8,3.3-3.6,5.4C0.4,22.6,0,24.8,0,27.1
			c0,2.3,0.4,4.6,1.3,6.6c0.8,2,2.1,3.9,3.6,5.4c0.1,0.1,0.3,0.3,0.4,0.4c-0.1,1.1-0.3,2.1-0.3,3.1c0,2.3,0.4,4.6,1.3,6.6
			c0.8,2,2.1,3.9,3.6,5.4c1.5,1.5,3.3,2.8,5.4,3.6c2.1,0.9,4.3,1.3,6.6,1.3s4.6-0.4,6.6-1.3c0.5-0.3,1.1-0.4,1.5-0.8
			c0.5,0.3,1.1,0.5,1.5,0.8c2.1,0.9,4.3,1.3,6.6,1.3s4.6-0.4,6.6-1.3c2-0.8,3.9-2.1,5.4-3.6s2.8-3.3,3.6-5.4
			c0.9-2.1,1.3-4.3,1.3-6.6c0-1.1-0.1-2.1-0.3-3.1c0.1-0.1,0.3-0.3,0.4-0.4c1.6-1.6,2.8-3.3,3.6-5.4c0.9-2.1,1.3-4.3,1.3-6.6
			C60.1,24.9,59.6,22.8,58.8,20.6z M57.4,33.3c-0.8,1.7-1.7,3.3-3.1,4.7c-0.1-0.7-0.4-1.2-0.7-1.9c-0.8-2-2.1-3.9-3.6-5.4
			c-0.5-0.5-1.1-0.9-1.6-1.5c-0.1,0.4-0.4,0.8-0.7,1.2c0.4,0.4,0.9,0.8,1.3,1.2c1.5,1.5,2.5,3.1,3.3,5c0.3,0.8,0.5,1.6,0.8,2.4
			c-1.2,1.1-2.5,1.9-4,2.5c-1.7,0.7-3.5,1.1-5.4,1.2c0,0.5-0.1,0.9-0.1,1.5c2.1,0,4.2-0.5,6.2-1.3c1.3-0.5,2.7-1.3,3.7-2.3
			c0.1,0.7,0.1,1.3,0.1,2.1c0,2.1-0.4,4.2-1.2,6c-0.8,1.9-1.9,3.5-3.3,5c-1.5,1.5-3.1,2.5-5,3.3c-1.9,0.8-4,1.2-6,1.2
			c-2.1,0-4.2-0.4-6-1.2C32,57,31.9,57,31.6,56.9c0.9-0.5,1.7-1.3,2.4-2c1.6-1.6,2.8-3.3,3.6-5.4c0.1-0.3,0.3-0.5,0.4-0.9
			c-0.5,0-0.9-0.1-1.3-0.3c-0.1,0.3-0.1,0.4-0.3,0.7c-0.8,1.9-1.9,3.5-3.3,5c-0.9,0.9-1.9,1.6-2.9,2.3c-1.1-0.7-2-1.3-2.9-2.3
			c-1.5-1.5-2.5-3.1-3.3-5c-0.1-0.1-0.1-0.4-0.3-0.7c-0.4,0.1-0.9,0.3-1.3,0.3c0.1,0.3,0.3,0.7,0.4,0.9c0.8,2,2.1,3.9,3.6,5.4
			c0.8,0.8,1.6,1.5,2.4,2c-0.3,0.1-0.4,0.3-0.7,0.3c-1.9,0.8-4,1.2-6,1.2s-4.2-0.4-6-1.2c-1.9-0.8-3.5-1.9-5-3.3
			c-1.5-1.5-2.5-3.1-3.3-5c-0.8-1.9-1.2-4-1.2-6c0-0.7,0-1.3,0.1-2.1c1.2,0.9,2.4,1.6,3.7,2.3c2,0.8,4,1.2,6.2,1.3
			c-0.1-0.4-0.1-0.9-0.1-1.5c-1.9-0.1-3.7-0.5-5.4-1.2c-1.5-0.7-2.8-1.5-4-2.5c0.1-0.8,0.4-1.6,0.8-2.4c0.8-1.9,1.9-3.5,3.3-5
			c0.4-0.4,0.8-0.8,1.3-1.2c-0.3-0.4-0.5-0.8-0.7-1.2c-0.5,0.4-1.1,0.9-1.6,1.5c-1.6,1.6-2.8,3.3-3.6,5.4C6.3,36.8,6,37.4,5.9,38
			c-1.3-1.3-2.4-2.9-3.1-4.7c-0.8-1.9-1.2-4-1.2-6s0.4-4.2,1.2-6c0.8-1.9,1.9-3.5,3.3-5c1.5-1.5,3.1-2.5,5-3.3
			c1.1-0.4,2.3-0.8,3.3-0.9c-0.7,1.9-1.1,3.7-1.1,5.8c0,1.6,0.3,3.2,0.7,4.7c0.4-0.3,0.8-0.4,1.3-0.5c-0.4-1.3-0.5-2.7-0.5-4.2
			c0-2,0.4-4.2,1.2-6c0.4,0,0.7,0,1.1,0c2.1,0,4.2,0.4,6,1.2c0.9,0.4,1.7,0.8,2.5,1.3c0.1-0.3,0.4-0.4,0.5-0.7
			c0.1-0.1,0.3-0.3,0.4-0.4c-0.9-0.7-1.9-1.2-2.9-1.6c-2.1-0.9-4.3-1.3-6.6-1.3c-0.1,0-0.3,0-0.4,0c0.7-1.3,1.6-2.5,2.7-3.6
			c1.5-1.5,3.1-2.5,5-3.3C25.8,2.6,27.8,2,30,2s4.2,0.4,6,1.2c1.9,0.8,3.5,1.9,5,3.3c1.1,1.1,2,2.3,2.7,3.6c-0.3,0-0.4,0-0.7,0
			c-2.3,0-4.6,0.4-6.6,1.3c-1.1,0.4-2,0.9-2.9,1.6c0.1,0.1,0.3,0.3,0.4,0.4c0.1,0.1,0.4,0.4,0.5,0.7c0.8-0.5,1.6-0.9,2.5-1.3
			c1.9-0.8,4-1.2,6-1.2c0.4,0,0.9,0,1.3,0c0.8,1.9,1.2,3.9,1.2,6c0,1.5-0.1,2.8-0.5,4.2c0.4,0.1,0.9,0.4,1.2,0.7
			c0.4-1.6,0.7-3.2,0.7-4.8c0-2-0.4-3.9-0.9-5.8c1.1,0.3,2.1,0.5,3.1,0.9c1.9,0.8,3.5,1.9,5,3.3s2.5,3.1,3.3,5s1.2,4,1.2,6
			C58.6,29.3,58.2,31.5,57.4,33.3z"/>
	</g>
</g>
</svg>
