<?xml version="1.0" encoding="utf-8"?>
<!-- Generator: Adobe Illustrator 21.0.0, SVG Export Plug-In . SVG Version: 6.00 Build 0)  -->
<svg version="1.1" id="Layer_1" xmlns="http://www.w3.org/2000/svg" xmlns:xlink="http://www.w3.org/1999/xlink" x="0px" y="0px"
	 viewBox="0 0 60 60" style="enable-background:new 0 0 60 60;" xml:space="preserve">
<style type="text/css">
	.st0{fill:#FFFFFF;}
</style>
<g>
	<rect y="21.4" width="60" height="17.1"/>
	<path class="st0" d="M16.6,33.5h1v1.7h-3.1v-4.3c0-1.3-0.4-1.8-1.3-1.8c-1,0-1.4,0.7-1.4,1.8v2.7h1v1.7H9.6v-4.3
		c0-1.3-0.4-1.8-1.3-1.8c-1,0-1.4,0.7-1.4,1.8v2.7h1.4v1.7H3.8v-1.7h1v-4.3h-1v-1.7h3.1v1.1c0.4-0.8,1.2-1.3,2.3-1.3
		c1.1,0,2.1,0.5,2.4,1.6c0.4-1,1.3-1.6,2.4-1.6c1.3,0,2.6,0.8,2.6,2.6L16.6,33.5L16.6,33.5L16.6,33.5z M22.5,33.7
		c-1.2,0-1.8-1-1.8-2.3c0-1.4,0.7-2.3,1.8-2.3c1,0,1.8,0.7,1.8,2.2C24.3,32.8,23.6,33.7,22.5,33.7z M22.5,27.4c-2.7,0-4,1.8-4,4.1
		c0,2.4,1.6,3.9,3.9,3.9c2.4,0,4.1-1.5,4.1-4C26.5,29.3,25.2,27.4,22.5,27.4z M33.2,32.4l1.7,0.2l-0.5,2.7h-6.5L27.7,34l4.1-4.8
		h-2.3l-0.3,1.2l-1.5-0.2l0.3-2.7h6.6l0.2,1.1l-4.2,4.8h2.4L33.2,32.4L33.2,32.4z M36.5,35.2h2.2v-2.7h-2.2
		C36.5,32.5,36.5,35.2,36.5,35.2z M36.5,30.3h2.2v-2.7h-2.2V30.3L36.5,30.3z M45.5,23.6l-3.2,11.6h-2.1l3.2-11.6H45.5L45.5,23.6z
		 M49.8,23.6l-3.2,11.6h-2.1l3.2-11.6H49.8L49.8,23.6z M52.7,33.8c-0.6,0-0.9-0.4-0.9-0.9c0-0.8,0.7-1,1.4-1c0.3,0,0.7,0.1,1.1,0.1
		C54.3,33.2,53.5,33.8,52.7,33.8L52.7,33.8z M57.3,33.8c-0.1,0-0.2,0-0.3,0.1c-0.3,0-0.5-0.2-0.5-0.6V30c0-1.7-1.4-2.6-3-2.6
		c-1.2,0-1.9,0.2-3.2,0.7L50,29.9l1.7,0.2l0.2-0.9c0.3-0.2,0.7-0.2,1.1-0.2c1.2,0,1.2,0.9,1.2,1.7v0.3c-0.4,0-0.8-0.1-1.2-0.1
		c-1.7,0-3.5,0.4-3.5,2.3c0,1.6,1.2,2.2,2.3,2.2c1.2,0,2-0.7,2.4-1.5c0.1,0.9,0.6,1.5,1.6,1.5c0.5,0,0.9-0.1,1.3-0.4
		C57.3,35,57.3,33.8,57.3,33.8z"/>
</g>
</svg>
