<svg xmlns="http://www.w3.org/2000/svg" xmlns:xlink="http://www.w3.org/1999/xlink" id="Layer_1" x="0" y="0" enable-background="new 0 0 60 60" version="1.1" viewBox="0 0 60 60" xml:space="preserve"><style type="text/css">.st0{fill:#b8d3f4}.st1{fill:#3385ff}</style><g id="Page-1"><g id="logo" transform="translate(0.000000, -1.000000)"><g id="::-icon"><path id="Shape" d="M49.1,30.9c0,3.8-1.1,7.4-3,10.4l7.7,7.7c3.8-5,6.1-11.3,6.1-18.1s-2.4-13.1-6.1-18.1l-7.7,7.7 C48,23.5,49.1,27,49.1,30.9L49.1,30.9z" class="st0"/><path id="Shape_1_" d="M30,50.1c-10.5,0-19.1-8.7-19.1-19.2S19.5,11.7,30,11.7c3.9,0,7.4,1.1,10.3,3.1L48,7.1 C43,3.4,36.7,1,30,1c-16.5,0-30,13.4-30,30.1S13.5,61,30,61c6.9,0,13.2-2.4,18.2-6.1l-7.7-7.7C37.5,49,33.9,50.1,30,50.1L30,50.1 z" class="st1"/></g></g></g></svg>