<svg xmlns="http://www.w3.org/2000/svg" xmlns:xlink="http://www.w3.org/1999/xlink" id="Layer_1" x="0" y="0" enable-background="new 0 0 60 60" version="1.1" viewBox="0 0 60 60" xml:space="preserve"><style type="text/css">.st0{fill:#25aae1}</style><g><path d="M23.8-0.4h11.9v11.9H23.8L23.8-0.4z M23.8,82.8h11.9v11.9H23.8L23.8,82.8z M11.9,11.5h11.9v11.9H11.9V11.5z M11.9,70.9h11.9v11.9H11.9V70.9z M0,23.4h11.9v47.5H0V23.4z" class="st0" transform="matrix(.5609813 0 0 .5609813 .002861 3.555555)"/><path d="M71.3-0.4h11.9v11.9H71.3V-0.4z M83.2,70.9h11.9v11.9H83.2V70.9z M71.3,82.8h11.9v11.9H71.3V82.8z M83.2,11.5 h11.9v11.9H83.2V11.5z M95.1,23.4H107v47.5H95.1V23.4z" class="st0" transform="matrix(.5609813 0 0 .5609813 .002861 3.555555)"/></g></svg>