<svg xmlns="http://www.w3.org/2000/svg" xmlns:xlink="http://www.w3.org/1999/xlink" id="Layer_1" x="0" y="0" enable-background="new 0 0 60 60" version="1.1" viewBox="0 0 60 60" xml:space="preserve"><style type="text/css">.st0{fill:#444b54}.st1{fill:#71c1fe}</style><g><path d="M30,3.1c7.2,0,13.9,2.8,19,7.9s7.9,11.8,7.9,19S54.1,43.9,49,49s-11.8,7.9-19,7.9S16.1,54.1,11,49 S3.1,37.2,3.1,30S5.9,16.1,11,11S22.8,3.1,30,3.1 M30,0C13.4,0,0,13.4,0,30s13.4,30,30,30s30-13.4,30-30S46.6,0,30,0L30,0z" class="st0"/><path d="M34.3,14.8c1.2,0,1.8,1,1.5,2.2c-1.1,3.5-2.2,7-3.3,10.5c-1.4,4.5-2.8,9.1-4.2,13.6c-0.1,0.2-0.1,0.4-0.2,0.6 c-0.4,0.9-1.1,1.3-1.9,1c-0.8-0.3-1.3-1.1-1-2c0.6-2.1,1.3-4.1,1.9-6.2c1.9-6,3.8-12.1,5.6-18.1C33,15.5,33.3,14.8,34.3,14.8z" class="st1"/><path d="M20.2,34c0,0.7-0.2,1.2-0.7,1.5c-0.7,0.3-1.4,0.2-2-0.3c-1.8-1.5-3.6-3.1-5.4-4.6c-0.4-0.3-0.8-0.6-1.2-1 c-0.8-0.8-0.8-1.8,0-2.5c2.2-1.9,4.4-3.7,6.7-5.5c0.8-0.6,1.7-0.6,2.3,0.1c0.6,0.6,0.5,1.6-0.2,2.2c-1.6,1.4-3.2,2.7-4.8,4 c-0.5,0.4-0.5,0.6,0,1c1.6,1.3,3.1,2.6,4.6,3.9C19.8,33.1,20.2,33.5,20.2,34z" class="st1"/><path d="M41.5,21c0.4,0.1,0.8,0.2,1.2,0.5c2.2,1.8,4.3,3.6,6.5,5.4c1,0.8,1,1.8,0,2.6c-2.2,1.9-4.3,3.7-6.5,5.6 c-0.8,0.6-1.8,0.6-2.4,0c-0.6-0.7-0.4-1.8,0.4-2.4c1.5-1.3,3-2.6,4.5-3.8c0.6-0.5,0.6-0.8,0-1.3c-1.6-1.3-3.1-2.6-4.7-4 c-0.6-0.5-0.6-1.1-0.4-1.8C40.3,21.4,40.9,21.1,41.5,21z" class="st1"/></g></svg>