<?xml version="1.0" encoding="utf-8"?>
<!-- Generator: Adobe Illustrator 21.0.0, SVG Export Plug-In . SVG Version: 6.00 Build 0)  -->
<svg version="1.1" id="scarf-logo" xmlns="http://www.w3.org/2000/svg" xmlns:xlink="http://www.w3.org/1999/xlink" x="0px" y="0px"
	 viewBox="0 0 60 60" style="enable-background:new 0 0 60 60;" xml:space="preserve">
<style type="text/css">
	.st0{fill:#06446C;}
</style>
<path id="XMLID_468_" class="st0" d="M60,26.4v-3.6c0-2.7-2.2-4.9-4.9-4.9H32.7V7c0-0.7-0.6-1.3-1.3-1.3h-1.8V1.8
	c0-0.7-0.6-1.3-1.3-1.3C27.6,0.5,27,1,27,1.8v3.9h-3.8V1.8c0-0.7-0.6-1.3-1.3-1.3c-0.7,0-1.3,0.6-1.3,1.3v3.9h-3.8V1.8
	c0-0.7-0.6-1.3-1.3-1.3C14.6,0.5,14,1,14,1.8v3.9h-3.8V1.8c0-0.7-0.6-1.3-1.3-1.3S7.5,1,7.5,1.8v3.9H5.8C5,5.7,4.5,6.3,4.5,7v10.9
	C2,18.2,0,20.3,0,22.8v3.6c0,1.4,0.6,2.7,1.6,3.6c-1,0.9-1.6,2.2-1.6,3.6v3.6c0,2.7,2.2,4.9,4.9,4.9h22.4V53c0,0.7,0.6,1.3,1.3,1.3
	h1.8v3.9c0,0.7,0.6,1.3,1.3,1.3c0.7,0,1.3-0.6,1.3-1.3v-3.9h3.8v3.9c0,0.7,0.6,1.3,1.3,1.3s1.3-0.6,1.3-1.3v-3.9h3.8v3.9
	c0,0.7,0.6,1.3,1.3,1.3S46,59,46,58.2v-3.9h3.8v3.9c0,0.7,0.6,1.3,1.3,1.3s1.3-0.6,1.3-1.3v-3.9h1.8c0.7,0,1.3-0.6,1.3-1.3V42.1
	c2.5-0.2,4.5-2.3,4.5-4.9v-3.6c0-1.4-0.6-2.7-1.6-3.6C59.4,29.1,60,27.8,60,26.4z M7.1,8.3H30v9.6H7.1V8.3z M52.9,51.7h-1.8H30v-9.6
	h22.9L52.9,51.7L52.9,51.7z M57.3,26.4c0,1.2-1,2.3-2.3,2.3H41.9c-0.7,0-1.3,0.6-1.3,1.3c0,0.7,0.6,1.3,1.3,1.3h13.2
	c1.2,0,2.3,1,2.3,2.3v3.6c0,1.2-1,2.3-2.3,2.3h-0.9H4.9c-1.2,0-2.3-1-2.3-2.3v-3.6c0-1.2,1-2.3,2.3-2.3h13.2c0.7,0,1.3-0.6,1.3-1.3
	c0-0.7-0.6-1.3-1.3-1.3H4.9c-1.2,0-2.3-1-2.3-2.3v-3.6c0-1.2,1-2.3,2.3-2.3h50.2c1.2,0,2.3,1,2.3,2.3V26.4z"/>
</svg>
