<svg xmlns="http://www.w3.org/2000/svg" xmlns:xlink="http://www.w3.org/1999/xlink" id="Layer_1" x="0" y="0" enable-background="new 0 0 60 60" version="1.1" viewBox="0 0 60 60" xml:space="preserve"><style type="text/css">.st0{fill:#323232}</style><g><path d="M7.5,37.3c0.2,1.7,0.7,3,1.4,3.9c1.3,1.6,3.5,2.3,6.7,2.3c1.9,0,3.4-0.2,4.6-0.6c2.2-0.8,3.4-2.2,3.4-4.4 c0-1.2-0.6-2.2-1.7-2.9c-1.1-0.7-2.8-1.3-5.2-1.8l-4.1-0.9c-4-0.9-6.8-1.9-8.3-2.9c-2.5-1.7-3.8-4.5-3.8-8.2c0-3.4,1.2-6.2,3.7-8.4 s6.1-3.4,11-3.4c4,0,7.5,1.1,10.3,3.2c2.8,2.1,4.3,5.2,4.5,9.2h-7.6c-0.1-2.3-1.2-3.9-3-4.8c-1.3-0.6-2.8-0.9-4.7-0.9 c-2.1,0-3.7,0.4-5,1.2c-1.2,0.8-1.9,2-1.9,3.4c0,1.3,0.6,2.4,1.8,3c0.8,0.4,2.5,1,5,1.6l6.6,1.6c2.9,0.7,5.1,1.6,6.5,2.7 c2.3,1.8,3.4,4.3,3.4,7.7c0,3.4-1.3,6.3-4,8.6s-6.4,3.4-11.3,3.4c-5,0-8.9-1.1-11.7-3.4C1.4,44.3,0,41.2,0,37.3H7.5z" class="st0"/><path d="M41.9,40c0.2,1.3,0.5,2.2,1,2.8c0.9,1,2.6,1.5,5,1.5c1.4,0,2.6-0.2,3.4-0.6s1.3-1.1,1.3-1.9 c0-0.8-0.3-1.4-1-1.9c-0.7-0.4-3.2-1.2-7.6-2.2c-3.2-0.8-5.4-1.8-6.7-2.9c-1.3-1.2-1.9-2.8-1.9-5c0-2.6,1-4.8,3-6.6 s4.9-2.8,8.6-2.8c3.5,0,6.3,0.7,8.5,2.1c2.2,1.4,3.5,3.8,3.8,7.2h-7.3c-0.1-0.9-0.4-1.7-0.8-2.2c-0.8-1-2.2-1.5-4.1-1.5 c-1.6,0-2.7,0.2-3.4,0.7s-1,1.1-1,1.7c0,0.8,0.4,1.4,1.1,1.8c0.7,0.4,3.3,1.1,7.6,2c2.9,0.7,5.1,1.7,6.5,3.1 c1.4,1.4,2.2,3.1,2.2,5.2c0,2.8-1,5-3.1,6.8s-5.2,2.6-9.6,2.6c-4.4,0-7.6-0.9-9.7-2.8c-2.1-1.9-3.1-4.2-3.1-7.1H41.9z" class="st0"/></g></svg>