<svg xmlns="http://www.w3.org/2000/svg" xmlns:xlink="http://www.w3.org/1999/xlink" id="Layer_1" x="0" y="0" enable-background="new 0 0 60 60" version="1.1" viewBox="0 0 60 60" xml:space="preserve"><style type="text/css">.st0{fill:#4b5268}.st1{fill:#f79044}</style><g><path d="M26.1,5.3H4.6C0,5.3,0,5.3,0,9.5c0,4.1,0,4.1,4.5,4.1h12.9v14.6l8.8-6.9V5.3z" class="st0"/><path d="M17.3,50.5c0,4.2,0,4.2,4.4,4.2s4.4,0,4.4-4.2V29.7l-8.8,6.9V50.5z" class="st1"/><path d="M33,5.3h21.5c4.5,0,5.4,0,5.4,4.1s-1,4.1-5.4,4.1H41.8v14.6L33,21.2V5.3z" class="st0"/><path d="M41.8,50.5c0,4.2,0,4.2-4.4,4.2s-4.4,0-4.4-4.2V29.7l8.8,6.9C41.8,36.6,41.8,50.5,41.8,50.5z" class="st1"/></g></svg>