<?xml version="1.0" encoding="utf-8"?>
<!-- Generator: Adobe Illustrator 21.0.0, SVG Export Plug-In . SVG Version: 6.00 Build 0)  -->
<svg version="1.1" id="Layer_1" xmlns="http://www.w3.org/2000/svg" xmlns:xlink="http://www.w3.org/1999/xlink" x="0px" y="0px"
	 viewBox="0 0 60 60" style="enable-background:new 0 0 60 60;" xml:space="preserve">
<style type="text/css">
	.st0{fill:#B4DEC8;}
</style>
<path class="st0" d="M60,20.6l-5-8.1c0,0,0,0-0.1-0.1L41.4,5.6h0h0l0,0l0,0h0c0,0,0,0,0,0l0,0l-11.3,8.5L18.6,5.8l0,0h0h0l0,0l0,0h0
	h0L5,12.9c0,0-0.1,0-0.1,0.1L0,21.2c0,0.1,0,0.2,0,0.2c0,0,0,0,0,0l0,0l14.7,17.1l0,0l0,0l15.4,15.8c0,0,0,0.1,0.1,0.1
	c0,0,0,0,0.1,0c0,0,0.1,0,0.2-0.1l15.2-16.2c0,0,0-0.1,0-0.1l14.2-17.3l0,0c0,0,0,0,0,0C60,20.7,60,20.6,60,20.6z M45,20.9
	L30.4,37.6l-0.1-11l14.8-5.8L45,20.9z M29.8,26.6l0.1,11l-15-16.4L29.8,26.6z M42.8,24.1l2.9-3.3l-0.3,13.1l-0.1,3.8l-14.5,0
	L42.8,24.1z M30.6,26l9.3-17.2l1.3-2.5l4.4,13.8L30.6,26z M29.6,26l-8.7-3.2l-6.5-2.4l4.1-13.9l1,1.8L29.6,26z M29.7,38l-14.6,0.2
	l-0.8-17L29.7,38z M39.8,8l-9.5,17.4l-0.1-10.9l10.4-8L39.8,8z M29.8,25.5L19.3,7l-0.1-0.2l10.5,7.7L29.8,25.5z M30,38.4l0.2,15.2
	l-14.7-15L30,38.4z M30.4,38.4L45,38.3L30.6,53.7L30.4,38.4z M59.4,20.4L46.1,20h0l-2.8-8.7l-1.7-5.1l13,6.5L59.4,20.4z M5.2,13.2
	l12.9-6.8L14,20.3L0.6,21.1L5.2,13.2z M0.7,21.5l13.1-0.7h0.2l0.8,16.9L0.7,21.5z M45.7,37.4l0.4-16.9l2.7,0.1l10.5,0.3L45.7,37.4z"
	/>
</svg>
