<?xml version="1.0" encoding="utf-8"?>
<!-- Generator: Adobe Illustrator 21.0.0, SVG Export Plug-In . SVG Version: 6.00 Build 0)  -->
<svg version="1.1" id="Layer_1" xmlns="http://www.w3.org/2000/svg" xmlns:xlink="http://www.w3.org/1999/xlink" x="0px" y="0px"
	 viewBox="0 0 60 60" style="enable-background:new 0 0 60 60;" xml:space="preserve">
<style type="text/css">
	.st0{fill:#B4DEC8;}
</style>
<g>
	<path class="st0" d="M30.2,54.3c-0.2,0-0.3-0.1-0.3-0.2L14.8,38.6L0.3,21.7v-0.4l4.8-8.1c0-0.1,0.1-0.2,0.3-0.3l13.5-7l11.3,8.1
		l11.1-8.3l13.4,6.8l0.2,0.1l5,8.1v0.1c0,0.1-0.1,0.3-0.2,0.3L45.7,38v0l-0.1,0.2L30.7,54.1C30.5,54.3,30.3,54.3,30.2,54.3
		L30.2,54.3z M30.8,52.7l13.4-14.3l-13.5,0.1L30.8,52.7z M29.9,52.6l-0.2-14.1l-13.4,0.2L29.9,52.6z M15.6,37.9l13.6-0.2L14.8,22.1
		L15.6,37.9z M44.8,37.4l0.1-3.5l0.3-12.2l-2.4,2.7l-11.4,13H44.8z M14.8,36.9L14,21.2L1.7,21.9L14.8,36.9z M29.7,36.9l-0.1-10
		L16,22L29.7,36.9z M30.6,36.9L44,21.6l-13.4,5.3L30.6,36.9z M45.7,36.6l12.6-15.3L48.5,21L46.1,21L45.7,36.6z M21.1,22.7l7.9,2.9
		L19.5,8.8l-0.7-1.3L15,20.5L21.1,22.7z M40,9.3l-8.8,16.3L45,20.2L41,7.4L40,9.3z M29.5,24.7l-0.1-9.7l-9.3-6.8L29.5,24.7z
		 M30.5,24.6l8.9-16.3l0.2-0.5l-9.2,7.1L30.5,24.6z M1.5,21l12.5-0.7l3.8-12.9L5.8,13.7L1.5,21z M58.5,20.3L54,13.2L41.8,7.1
		l1.5,4.5L46,20L58.5,20.3z"/>
	<path class="st0" d="M41.2,6.1l13.3,6.7c0.1,0.1,0.1,0.1,0.1,0.1l4.9,8c0,0,0,0.1-0.1,0.1l-14,17V38L30.5,53.9
		C30.4,54,30.3,54,30.3,54c-0.1,0-0.1,0-0.1,0c-0.1,0-0.1-0.1-0.1-0.1L15,38.4L0.5,21.6c0,0,0-0.1,0-0.2l4.8-8.1
		c0-0.1,0.1-0.1,0.1-0.1l13.4-7l11.3,8.2L41.2,6.1 M58.9,20.6L54.2,13L41.4,6.6l1.7,5l2.8,8.6L58.9,20.6 M30.6,26.1l14.8-5.8L41,6.7
		l-1.3,2.5L30.6,26.1 M1.1,21.3l13.2-0.8l4-13.7L5.6,13.5L1.1,21.3 M30.3,25.5l9.3-17.1l0.8-1.5l-10.2,7.9L30.3,25.5 M29.6,26.1
		L19.7,8.7l-1-1.8l-4,13.7l6.4,2.4L29.6,26.1 M29.8,25.6l-0.1-10.8L19.4,7.2l0.1,0.2L29.8,25.6 M45.4,37.3l13.4-16.2l-10.3-0.3
		l-2.7-0.1L45.4,37.3 M30.8,37.6H45l0.1-3.7L45.4,21l-2.9,3.2L30.8,37.6 M30.4,37.5l14.4-16.4l0.1-0.1l-14.6,5.7L30.4,37.5
		 M15.1,37.6L14.3,21h-0.2L1.2,21.7L15.1,37.6 M29.9,37.5l-0.1-10.8l-14.7-5.3L29.9,37.5 M15.3,38.1l14.4-0.2L14.6,21.4L15.3,38.1
		 M30.6,53.3l14.2-15.1l-14.4,0.1L30.6,53.3 M30.2,53.2L30,38.3l-14.3,0.2L30.2,53.2 M41.2,5.5l-0.2,0.2l-10.8,8.1l-11-7.9l-0.2-0.2
		l-0.3,0.1L5.2,12.8c-0.2,0.1-0.3,0.2-0.4,0.4l-4.8,8L0,21.3v0.1v0.2v0.2l0.1,0.1l14.5,16.8l15.1,15.5c0.1,0.2,0.3,0.3,0.5,0.3h0.1
		c0.1,0,0.3,0,0.5-0.2l15-15.9l0.1-0.1v-0.1l13.8-16.8c0.2-0.1,0.3-0.3,0.3-0.5v-0.1l-0.1-0.1l-4.9-8l0,0l0,0l-0.1-0.1l-0.1-0.1
		l-0.1,0L41.4,5.6L41.2,5.5L41.2,5.5z M46.2,19.7l-2.6-8.2l-1.3-3.9l11.6,5.8l4.2,6.7L46.2,19.7L46.2,19.7z M6,13.9l11.5-6.1
		L13.9,20L2,20.7L6,13.9L6,13.9z M31.7,25.2l8.5-15.7L40.9,8l3.8,12L31.7,25.2L31.7,25.2z M15.3,20.3l3.6-12.1L19.2,9l9.3,16.2
		l-7.3-2.7L15.3,20.3L15.3,20.3z M30.7,15l8.2-6.3l-8.1,14.9L30.7,15L30.7,15z M29.3,23.7L20.9,9l8.3,6.1L29.3,23.7L29.3,23.7z
		 M46,35.9l0.3-14.7l2.2,0.1l9.3,0.3L46,35.9L46,35.9z M2.2,22.1l11.6-0.6l0.7,14.7L2.2,22.1L2.2,22.1z M30.8,27l12.3-4.8l-12.3,14
		L30.8,27L30.8,27z M31.9,37.1L43,24.6l2-2.2l-0.3,11.5l-0.1,3.3H31.9L31.9,37.1z M29.4,36.2L16.9,22.5L29.3,27L29.4,36.2L29.4,36.2
		z M15.8,37.6l-0.7-14.9l13.5,14.7L15.8,37.6L15.8,37.6z M30.9,38.8l12.7-0.1L31.1,52.1L30.9,38.8L30.9,38.8z M16.9,39l12.6-0.2
		L29.7,52L16.9,39L16.9,39z"/>
</g>
</svg>
