<svg xmlns="http://www.w3.org/2000/svg" xmlns:xlink="http://www.w3.org/1999/xlink" id="Layer_1" x="0" y="0" enable-background="new 0 0 60 60" version="1.1" viewBox="0 0 60 60" xml:space="preserve"><style type="text/css">.st0{fill:#007eff}</style><g><path d="M15.4,0c4.3,0,6.3,3.6,6.3,6.7c0,0,0,12.6,0,15.2s2,4.8,3.8,4.8c1.3,0,1.9,0,1.9,0v6.5c0,0-5.4-0.1-5.4,4.6 c0,4.9,0,13.2,0,15.3c0,2.5-2.5,6.9-6.9,6.9c-3.9,0-5.1,0-5.1,0v-5.6c0,0,1.7,0,2.7,0s2.7-0.2,2.7-2.7s0-12.8,0-15.5 c0-4,4.1-6.1,4.1-6.1s-3.8-2.3-3.8-6.4c0-3.8,0-13.7,0-15.5c0-1.5-1.2-2.4-3-2.4c-1.3,0-2.7,0-2.7,0V0C10.1,0,11.5,0,15.4,0z" class="st0"/><path d="M44.6,0c-4.3,0-6.3,3.6-6.3,6.7c0,0,0,12.6,0,15.2s-2,4.8-3.8,4.8c-1.3,0-1.9,0-1.9,0v6.5c0,0,5.4-0.1,5.4,4.6 c0,4.9,0,13.2,0,15.3c0,2.5,2.5,6.9,6.9,6.9c3.9,0,5.1,0,5.1,0v-5.6c0,0-1.7,0-2.7,0s-2.7-0.2-2.7-2.7s0-12.8,0-15.5 c0-4-4.1-6.1-4.1-6.1s3.8-2.3,3.8-6.4c0-3.8,0-13.7,0-15.5c0-1.5,1.2-2.4,3-2.4c1.3,0,2.7,0,2.7,0V0C49.9,0,48.5,0,44.6,0z" class="st0"/></g></svg>